<svg width="21" height="20" viewBox="0 0 21 20" fill="none" xmlns="http://www.w3.org/2000/svg">
<path d="M9.60326 1.81699C9.97008 1.07374 11.0299 1.07374 11.3967 1.81699L13.2063 5.48347C13.3519 5.77862 13.6335 5.98319 13.9592 6.03051L18.0054 6.61846C18.8256 6.73765 19.1531 7.74562 18.5596 8.32416L15.6318 11.1781C15.3961 11.4079 15.2885 11.7389 15.3442 12.0632L16.0353 16.0931C16.1754 16.91 15.318 17.533 14.5844 17.1473L10.9653 15.2446C10.674 15.0915 10.326 15.0915 10.0347 15.2446L6.41562 17.1473C5.68199 17.533 4.82456 16.91 4.96467 16.0931L5.65585 12.0632C5.71148 11.7389 5.60393 11.4079 5.36825 11.1781L2.44038 8.32416C1.84687 7.74562 2.17438 6.73765 2.9946 6.61846L7.04081 6.03051C7.36652 5.98319 7.64808 5.77862 7.79374 5.48347L9.60326 1.81699Z" fill="#2B2B2B"/>
</svg>
